<?xml version="1.0" encoding="iso-8859-1"?>
<!-- Generator: Adobe Illustrator 17.1.0, SVG Export Plug-In . SVG Version: 6.00 Build 0)  -->
<!DOCTYPE svg PUBLIC "-//W3C//DTD SVG 1.1//EN" "http://www.w3.org/Graphics/SVG/1.1/DTD/svg11.dtd">
<svg version="1.1" id="Capa_1" xmlns="http://www.w3.org/2000/svg" xmlns:xlink="http://www.w3.org/1999/xlink" x="0px" y="0px"
	 viewBox="0 0 345.586 345.586" style="enable-background:new 0 0 345.586 345.586;" xml:space="preserve">
<path style="fill:#000001;" d="M315,249.138v-39.566c0-11.028-8.972-20-20-20H183.638v-38.588
	c32.419-7.311,56.713-36.321,56.713-70.917c0-40.094-32.619-72.713-72.713-72.713S94.925,39.973,94.925,80.067
	c0,35.305,25.296,64.801,58.713,71.347v38.158H42.275c-11.028,0-20,8.972-20,20v51.116c0,0.658,0.057,1.302,0.139,1.938H10
	c-5.514,0-10,4.486-10,10v45.606c0,5.514,4.486,10,10,10h54.278c5.514,0,10-4.486,10-10v-45.606c0-5.514-4.486-10-10-10H52.136
	c0.082-0.636,0.139-1.28,0.139-1.938v-41.116h101.362v41.116c0,0.658,0.057,1.302,0.139,1.938h-12.415c-5.514,0-10,4.486-10,10
	v45.606c0,5.514,4.486,10,10,10h54.277c5.514,0,10-4.486,10-10v-45.606c0-5.514-4.486-10-10-10h-12.141
	c0.082-0.636,0.139-1.28,0.139-1.938v-41.116H285v29.38c-18.083,6.15-31.134,23.284-31.134,43.42c0,25.287,20.573,45.86,45.86,45.86
	s45.859-20.573,45.859-45.86C345.586,272.439,332.799,255.444,315,249.138z M64.278,323.232L64.278,323.232L64.278,323.232
	L64.278,323.232z M195.64,323.232L195.64,323.232L195.64,323.232L195.64,323.232z M299.727,308.232
	c-8.745,0-15.86-7.115-15.86-15.86c0-8.745,7.115-15.859,15.86-15.859s15.859,7.115,15.859,15.859
	C315.586,301.117,308.472,308.232,299.727,308.232z"/>
<g>
</g>
<g>
</g>
<g>
</g>
<g>
</g>
<g>
</g>
<g>
</g>
<g>
</g>
<g>
</g>
<g>
</g>
<g>
</g>
<g>
</g>
<g>
</g>
<g>
</g>
<g>
</g>
<g>
</g>
</svg>
